# xmcd CD database file
#
# Track frame offsets:
#	150
#	41207
#	67227
#	103305
#	132422
#	168742
#	203522
#
# Disc length: 3208 seconds
#
# Revision: 1
# Processed by: cddbd v1.5.2PL0 Copyright (c) Steve Scherf et al.
# Submitted via: CDex 1.51
#
DISCID=6e0c8607
DTITLE=EARTH - THE BEES MADE HONEY IN THE LION'S SKULL
DYEAR=2008
DGENRE=Drone
TTITLE0=Omens And Portents I - The Driver
TTITLE1=Rise To Glory
TTITLE2=Miami Mornig Coming Down II (Shine)
TTITLE3=Engine Of Ruin
TTITLE4=Omens And Portents II - Carrion Crow
TTITLE5=Hung From The Moon
TTITLE6=The Bees Made Honey In The Lion's Skull
EXTD=YEAR: 2008
EXTT0=
EXTT1=
EXTT2=
EXTT3=
EXTT4=
EXTT5=
EXTT6=
PLAYORDER=
